<svg width="37" height="38" viewBox="0 0 37 38" fill="none" xmlns="http://www.w3.org/2000/svg">
<path fill-rule="evenodd" clip-rule="evenodd" d="M0.56618 33.7843C-0.203887 34.5762 -0.186207 35.8424 0.605671 36.6124L0.964126 36.961C1.756 37.7311 3.02221 37.7134 3.79228 36.9215L18.3122 21.9904L32.8293 36.9177C33.5993 37.7096 34.8656 37.7272 35.6574 36.9571L36.0159 36.6086C36.8077 35.8385 36.8254 34.5723 36.0553 33.7804L21.4506 18.763L36.0571 3.74291C36.8271 2.95104 36.8095 1.68483 36.0176 0.914763L35.6591 0.566181C34.8673 -0.203887 33.6011 -0.186207 32.831 0.60567L18.3121 15.5358L3.7923 0.605631C3.02221 -0.186224 1.756 -0.203867 0.964144 0.566224L0.605699 0.914817C-0.186155 1.68491 -0.203799 2.95111 0.566292 3.74297L15.1736 18.7631L0.56618 33.7843Z" fill="#F13700"/>
</svg>
