<svg width="426" height="430" viewBox="0 0 426 430" fill="none" xmlns="http://www.w3.org/2000/svg">
<path d="M78.5704 365.513L48.6705 26.875H377.33L347.39 365.46L212.8 403.125L78.5704 365.513Z" fill="#1572B6"/>
<path d="M213 374.342L321.763 343.906L347.35 54.5701H213V374.342Z" fill="#33A9DC"/>
<path d="M213 177.255H267.448L271.202 134.725H213V93.1899H316.172L315.187 104.33L305.083 218.79H213V177.255V177.255Z" fill="white"/>
<path d="M213.253 285.116L213.067 285.169L167.245 272.673L164.316 239.549H123.008L128.772 304.761L213.053 328.384L213.253 328.331V285.116V285.116Z" fill="#EBEBEB"/>
<path d="M263.948 217.028L258.995 272.645L213.107 285.142V328.357L297.455 304.761L298.081 297.747L305.23 217.028H263.948V217.028Z" fill="white"/>
<path d="M213.147 93.1899V134.725H113.756L112.931 125.386L111.054 104.33L110.068 93.1899H213.147V93.1899Z" fill="#EBEBEB"/>
<path d="M212.999 177.253V218.788H167.75L166.925 209.449L165.061 188.393L164.076 177.253H212.999V177.253Z" fill="#EBEBEB"/>
</svg>
