<svg width="508" height="762" viewBox="0 0 508 762" fill="none" xmlns="http://www.w3.org/2000/svg">
<path d="M381 508C451.14 508 508 451.14 508 381C508 310.859 451.14 254 381 254C310.86 254 254 310.859 254 381C254 451.14 310.86 508 381 508Z" fill="#19BCFE"/>
<path fill-rule="evenodd" clip-rule="evenodd" d="M127 762C160.683 762 192.985 748.619 216.803 724.802C240.62 700.985 254 668.682 254 635V508H127C93.3175 508 61.0146 521.38 37.1974 545.197C13.3803 569.014 0 601.317 0 635C0 668.682 13.3803 700.985 37.1974 724.802C61.0146 748.619 93.3175 762 127 762V762Z" fill="#09CF83"/>
<path fill-rule="evenodd" clip-rule="evenodd" d="M127 508H254V254H127C93.3175 254 61.0146 267.38 37.1974 291.197C13.3803 315.014 0 347.317 0 381C0 414.682 13.3803 446.985 37.1974 470.802C61.0146 494.619 93.3175 508 127 508V508Z" fill="#A259FF"/>
<path fill-rule="evenodd" clip-rule="evenodd" d="M127 254H254V0H127C93.3175 0 61.0146 13.3803 37.1974 37.1974C13.3803 61.0146 0 93.3175 0 127C0 160.682 13.3803 192.985 37.1974 216.803C61.0146 240.62 93.3175 254 127 254V254Z" fill="#F24E1E"/>
<path fill-rule="evenodd" clip-rule="evenodd" d="M381 254H254V0H381C414.683 0 446.986 13.3803 470.803 37.1974C494.62 61.0146 508 93.3175 508 127C508 160.682 494.62 192.985 470.803 216.803C446.986 240.62 414.683 254 381 254Z" fill="#FF7262"/>
</svg>
