<svg width="58" height="58" viewBox="0 0 58 58" fill="none" xmlns="http://www.w3.org/2000/svg">
<path fill-rule="evenodd" clip-rule="evenodd" d="M29 0C12.9775 0 0 13.3058 0 29.7335C0 42.8906 8.30125 54.0035 19.8288 57.9432C21.2788 58.2034 21.8225 57.3114 21.8225 56.5309C21.8225 55.8247 21.7863 53.4832 21.7863 50.993C14.5 52.3682 12.615 49.1718 12.035 47.4993C11.7088 46.6445 10.295 44.0056 9.0625 43.2994C8.0475 42.7419 6.5975 41.3668 9.02625 41.3296C11.31 41.2924 12.9413 43.4853 13.485 44.3773C16.095 48.8745 20.2638 47.6108 21.9313 46.8303C22.185 44.8976 22.9463 43.5968 23.78 42.8534C17.3275 42.1101 10.585 39.5456 10.585 28.1725C10.585 24.939 11.7088 22.263 13.5575 20.1816C13.2675 19.4383 12.2525 16.3906 13.8475 12.3022C13.8475 12.3022 16.2762 11.5217 21.8225 15.3499C24.1425 14.6809 26.6075 14.3464 29.0725 14.3464C31.5375 14.3464 34.0025 14.6809 36.3225 15.3499C41.8688 11.4846 44.2975 12.3022 44.2975 12.3022C45.8925 16.3906 44.8775 19.4383 44.5875 20.1816C46.4363 22.263 47.56 24.9018 47.56 28.1725C47.56 39.5828 40.7813 42.1101 34.3288 42.8534C35.38 43.7826 36.2863 45.5666 36.2863 48.3541C36.2863 52.331 36.25 55.5274 36.25 56.5309C36.25 57.3114 36.7938 58.2405 38.2438 57.9432C44.0007 55.9504 49.0032 52.1568 52.5472 47.0963C56.0912 42.0359 57.9983 35.9634 58 29.7335C58 13.3058 45.0225 0 29 0Z" fill="#F13700"/>
</svg>
