<svg width="121" height="121" viewBox="0 0 121 121" fill="none" xmlns="http://www.w3.org/2000/svg">
<path d="M118.718 55.109L65.8884 2.28211C62.8478 -0.760378 57.9133 -0.760378 54.8689 2.28211L43.8985 13.2525L57.8149 27.1689C61.0489 26.0761 64.7573 26.8092 67.3352 29.3871C69.9254 31.9815 70.6533 35.7216 69.534 38.9659L82.9457 52.378C86.1905 51.2602 89.9344 51.9834 92.5259 54.5792C96.1479 58.1997 96.1479 64.0678 92.5259 67.6907C88.903 71.3141 83.035 71.3141 79.4102 67.6907C76.6858 64.9634 76.0127 60.9624 77.3919 57.6061L64.8845 45.0986L64.8831 78.013C65.7897 78.4613 66.6179 79.0535 67.3352 79.7666C70.9572 83.3871 70.9572 89.2556 67.3352 92.8814C63.7123 96.5029 57.8414 96.5029 54.2237 92.8814C50.6017 89.2556 50.6017 83.3876 54.2237 79.767C55.0917 78.8986 56.1232 78.2109 57.2586 77.7436V44.5225C56.1216 44.0583 55.0894 43.3702 54.2237 42.499C51.4795 39.7586 50.8196 35.732 52.2258 32.3624L38.5074 18.6426L2.28293 54.8647C-0.760978 57.91 -0.760978 62.845 2.28293 65.888L55.1137 118.716C58.1553 121.759 63.0889 121.759 66.1342 118.716L118.718 66.1333C121.761 63.0894 121.761 58.1515 118.718 55.109" fill="#DE4C36"/>
</svg>
