<svg width="346" height="336" viewBox="0 0 346 336" fill="none" xmlns="http://www.w3.org/2000/svg">
<path fill-rule="evenodd" clip-rule="evenodd" d="M173 0C77.4175 0 0 76.8761 0 171.79C0 247.807 49.5213 312.014 118.289 334.776C126.939 336.279 130.182 331.126 130.182 326.616C130.182 322.536 129.966 309.008 129.966 294.62C86.5 302.566 75.255 284.098 71.795 274.435C69.8488 269.496 61.415 254.25 54.0625 250.17C48.0075 246.948 39.3575 239.003 53.8462 238.788C67.47 238.574 77.2013 251.243 80.445 256.397C96.015 282.38 120.884 275.079 130.831 270.57C132.345 259.403 136.886 251.887 141.86 247.593C103.368 243.298 63.145 228.481 63.145 162.771C63.145 144.089 69.8488 128.628 80.8775 116.603C79.1475 112.308 73.0925 94.6994 82.6075 71.0782C82.6075 71.0782 97.0962 66.5687 130.182 88.6867C144.022 84.8214 158.727 82.8888 173.432 82.8888C188.138 82.8888 202.843 84.8214 216.683 88.6867C249.769 66.354 264.258 71.0782 264.258 71.0782C273.773 94.6994 267.718 112.308 265.988 116.603C277.016 128.628 283.72 143.874 283.72 162.771C283.72 228.696 243.281 243.298 204.789 247.593C211.06 252.961 216.466 263.268 216.466 279.374C216.466 302.351 216.25 320.818 216.25 326.616C216.25 331.126 219.494 336.494 228.144 334.776C262.487 323.262 292.329 301.344 313.471 272.107C334.613 242.869 345.99 207.784 346 171.79C346 76.8761 268.583 0 173 0Z" fill="black"/>
</svg>
