<svg width="426" height="430" viewBox="0 0 77 89" fill="none" xmlns="http://www.w3.org/2000/svg">
<path d="M7.00766 79.5054L0 0H77L69.983 79.4928L38.4532 88.3358L7.00766 79.5054Z" fill="#E44F26"/>
<path d="M38.5 81.5783L63.9795 74.4325L69.9736 6.50226H38.5V81.5783Z" fill="#F1662A"/>
<path d="M38.4999 35.987H25.7445L24.8651 26.0019H38.4999V16.2502H14.3302L14.561 18.8688L16.9281 45.7386H38.4999V35.987V35.987Z" fill="#EBEBEB"/>
<path d="M38.4998 61.3112L38.4561 61.3238L27.7216 58.393L27.0355 50.6163H17.3583L18.7087 65.9236L38.4561 71.4698L38.4998 71.4572V61.3112Z" fill="#EBEBEB"/>
<path d="M38.4657 35.9874V45.739H50.3354L49.2189 58.3868L38.4657 61.3208V71.4668L58.2287 65.9237L58.3722 64.2769L60.6363 38.6059L60.8734 35.9874H38.4657V35.9874Z" fill="white"/>
<path d="M38.4657 16.2502V26.0019H61.7497L61.9431 23.8124L62.3828 18.8688L62.6136 16.2502H38.4657V16.2502Z" fill="white"/>
</svg>
