<svg width="330" height="323" viewBox="0 0 330 323" fill="none" xmlns="http://www.w3.org/2000/svg">
<path d="M0 0H330V323H0V0Z" fill="#F7DF1E"/>
<path d="M86.7712 269.922L112.024 254.963C116.897 263.418 121.328 270.572 131.959 270.572C142.149 270.572 148.575 266.671 148.575 251.495V148.289H179.586V251.924C179.586 283.362 160.758 297.673 133.288 297.673C108.48 297.673 94.0802 285.097 86.7699 269.92" fill="black"/>
<path d="M196.428 266.668L221.678 252.359C228.325 262.984 236.965 270.789 252.248 270.789C265.099 270.789 273.292 264.501 273.292 255.828C273.292 245.421 264.874 241.734 250.697 235.665L242.946 232.41C220.572 223.09 205.731 211.381 205.731 186.664C205.731 163.898 223.451 146.552 251.142 146.552C270.857 146.552 285.034 153.274 295.223 170.836L271.076 186.014C265.758 176.691 260.002 173.006 251.141 173.006C242.058 173.006 236.298 178.643 236.298 186.014C236.298 195.12 242.058 198.808 255.348 204.445L263.1 207.697C289.462 218.756 304.303 230.029 304.303 255.395C304.303 282.716 282.373 297.675 252.912 297.675C224.115 297.675 205.508 284.233 196.426 266.67" fill="black"/>
</svg>
