<svg width="260" height="263" viewBox="0 0 260 263" fill="none" xmlns="http://www.w3.org/2000/svg">
<path d="M0 229.088C0 247.819 15.0099 263 33.5248 263H226.474C244.992 263 260 247.817 260 229.088V33.9126C260 15.1811 244.99 0 226.475 0H33.5258C15.0079 0 0 15.1831 0 33.9116V229.087V229.088Z" fill="#563D7C"/>
<path d="M107.816 116.334V79.0901H140.226C143.313 79.0901 146.289 79.35 149.155 79.8708C152.021 80.3907 154.557 81.3194 156.762 82.658C158.966 83.9967 160.73 85.8551 162.053 88.2334C163.376 90.6127 164.038 93.6609 164.038 97.3768C164.038 104.068 162.053 108.9 158.084 111.874C154.116 114.848 149.045 116.334 142.871 116.334H107.816V116.334ZM73.2004 51.8809V211.119H149.486C156.542 211.119 163.413 210.227 170.101 208.443C176.789 206.658 182.742 203.908 187.96 200.191C193.177 196.474 197.33 191.679 200.417 185.806C203.504 179.933 205.047 172.982 205.047 164.953C205.047 154.991 202.658 146.48 197.882 139.418C193.104 132.355 185.865 127.411 176.163 124.586C183.219 121.167 188.548 116.78 192.149 111.428C195.75 106.075 197.551 99.3852 197.551 91.3555C197.551 83.9217 196.338 77.6775 193.913 72.6219C191.487 67.5674 188.07 63.5155 183.66 60.4674C179.251 57.4193 173.96 55.2259 167.786 53.8883C161.613 52.5497 154.777 51.8809 147.281 51.8809H73.2004V51.8809ZM107.816 183.91V140.197H145.517C153.013 140.197 159.04 141.944 163.597 145.439C168.153 148.933 170.432 154.768 170.432 162.946C170.432 167.11 169.734 170.529 168.337 173.205C166.941 175.881 165.067 178.001 162.715 179.561C160.363 181.123 157.644 182.237 154.557 182.907C151.47 183.575 148.237 183.91 144.856 183.91H107.816V183.91Z" fill="white"/>
</svg>
