<svg xmlns="http://www.w3.org/2000/svg" xmlns:xlink="http://www.w3.org/1999/xlink" viewBox="0 0 396.9 317.24"><defs><style>.cls-1{stroke:#fff;fill:url(#linear-gradient);}.cls-1,.cls-10,.cls-14,.cls-17,.cls-2,.cls-4,.cls-8,.cls-9{stroke-miterlimit:10;}.cls-14,.cls-2,.cls-3,.cls-4,.cls-6{fill:none;}.cls-14,.cls-17,.cls-2,.cls-4,.cls-8{stroke:#f13700;}.cls-10,.cls-2,.cls-3{stroke-linecap:round;}.cls-2{stroke-width:12px;}.cls-10,.cls-3,.cls-9{stroke:#222629;}.cls-3{stroke-linejoin:round;}.cls-10,.cls-3,.cls-4{stroke-width:4px;}.cls-5{fill:url(#radial-gradient);}.cls-7{fill:url(#radial-gradient-2);}.cls-17,.cls-8{fill:#222629;}.cls-8,.cls-9{stroke-width:6px;}.cls-10,.cls-9{fill:#f13700;}.cls-11{fill:#e21500;opacity:0.6;}.cls-12{mask:url(#mask);}.cls-13{opacity:0.35;}.cls-14{stroke-width:8px;}.cls-15{fill:url(#radial-gradient-3);}.cls-16{fill:url(#radial-gradient-4);}.cls-17{stroke-width:9px;}</style><linearGradient id="linear-gradient" x1="200.55" y1="207.61" x2="200.24" y2="347.23" gradientUnits="userSpaceOnUse"><stop offset="0" stop-color="#fff"/><stop offset="0.1" stop-color="#d2d2d2"/><stop offset="0.22" stop-color="#a2a2a2"/><stop offset="0.34" stop-color="#787878"/><stop offset="0.47" stop-color="#565656"/><stop offset="0.59" stop-color="#3c3c3c"/><stop offset="0.72" stop-color="#292929"/><stop offset="0.86" stop-color="#1e1e1e"/><stop offset="1" stop-color="#1a1a1a"/></linearGradient><radialGradient id="radial-gradient" cx="129.99" cy="-0.68" fx="174.54492662580765" r="44.56" gradientTransform="translate(5.01 38.6) scale(1.01 0.69)" gradientUnits="userSpaceOnUse"><stop offset="0" stop-color="#fff" stop-opacity="0.24"/><stop offset="0.66" stop-color="#fff" stop-opacity="0.07"/><stop offset="1" stop-color="#fff" stop-opacity="0"/></radialGradient><radialGradient id="radial-gradient-2" cx="270.52" cy="30.21" r="40.88" gradientUnits="userSpaceOnUse"><stop offset="0" stop-color="#fff" stop-opacity="0.24"/><stop offset="0.37" stop-color="#fff" stop-opacity="0.13"/><stop offset="0.76" stop-color="#fff" stop-opacity="0.03"/><stop offset="1" stop-color="#fff" stop-opacity="0"/></radialGradient><mask id="mask" x="-6.93" y="192.33" width="414.71" height="132.93" maskUnits="userSpaceOnUse"><rect class="cls-1" x="-6.43" y="195.51" width="413.71" height="129.25"/></mask><radialGradient id="radial-gradient-3" cx="133.22" cy="-2758.99" fx="177.77096828655056" r="44.56" gradientTransform="matrix(1.01, 0, 0, -0.43, 5.01, -890.52)" xlink:href="#radial-gradient"/><radialGradient id="radial-gradient-4" cx="273.78" cy="-2832.72" r="40.88" gradientTransform="matrix(1, 0, 0, -0.62, 0, -1463.93)" xlink:href="#radial-gradient-2"/></defs><title>optimized-logo_1</title><g id="Layer_2" data-name="Layer 2"><g id="glass_svg" data-name="glass svg"><line class="cls-2" x1="349.44" y1="89.88" x2="388.3" y2="127.91"/><line class="cls-2" x1="348.86" y1="166.45" x2="388.3" y2="127.91"/><line class="cls-3" x1="349.44" y1="89.88" x2="388.3" y2="127.91"/><line class="cls-3" x1="348.86" y1="166.45" x2="388.3" y2="127.91"/><line class="cls-2" x1="44.86" y1="88.08" x2="6" y2="126.1"/><line class="cls-2" x1="45.44" y1="164.64" x2="6" y2="126.1"/><line class="cls-3" x1="44.86" y1="88.08" x2="6" y2="126.1"/><line class="cls-3" x1="45.44" y1="164.64" x2="6" y2="126.1"/><path class="cls-4" d="M324.51,14.94a1.45,1.45,0,0,0-.92-1.16c-8.13-3.07-76.56-27.56-113.4,4.73-1.18,1-3.7.79-5,.51-2.81-.59-5.51-1.47-8.41-1.46A33.29,33.29,0,0,0,188.26,19a7.39,7.39,0,0,1-4.6-.41,1.52,1.52,0,0,1-.38-.24C146.41-13.71,78.16,10.71,70,13.78a1.45,1.45,0,0,0-.92,1.16A51.16,51.16,0,0,0,69,28.52a1.49,1.49,0,0,0,.73,1.06L75.63,33c.38.21.77,2.55.92,3.05l1,3.11c2.82,9,5.86,18.08,10.54,26.11A41,41,0,0,0,112.59,84.4a66.71,66.71,0,0,0,11.78,2.16c21,2.07,39.9-4.35,52.55-23.57,5.48-8.32,7.38-17.3,10.58-26.73,1.28-3.75,3.94-7.09,7.39-8a7.52,7.52,0,0,1,3.69-.07l.31.07c3.54,1,6,4.42,7.24,8,3.2,9.43,5.1,18.41,10.58,26.73,12.65,19.22,31.59,25.64,52.55,23.57A66.71,66.71,0,0,0,281,84.4a41,41,0,0,0,24.54-19.16c4.68-8,7.72-17.14,10.54-26.11l1-3.11c.15-.5.54-2.84.92-3.05l5.92-3.39a1.49,1.49,0,0,0,.73-1.06A51.16,51.16,0,0,0,324.51,14.94ZM179.86,40.79c-7.78,31.3-22.71,40.82-45.12,42.18-10.59.64-21.82-.77-31.07-6.85-11.11-7.3-16.36-20-18.24-33.56C84.65,37,84,32,86.17,26.67c2.64-6.57,8.19-11,14.06-13.73,10.15-4.79,21.71-5.76,32.63-5.83h0C134.1,7.17,187.55,9.85,179.86,40.79ZM308.2,42.56c-1.88,13.57-7.13,26.26-18.24,33.56-9.25,6.08-20.48,7.49-31.07,6.85-22.4-1.36-37.34-10.88-45.12-42.18-7.69-30.94,45.76-33.62,47-33.68h0c10.92.07,22.49,1,32.63,5.83,5.87,2.77,11.42,7.16,14.06,13.73C309.6,32,309,37,308.2,42.56Z"/><path class="cls-4" d="M260.91,6.94,250.29,21.37a1.48,1.48,0,0,0,.34,2.09l11.11,7.83a1.48,1.48,0,0,1,0,2.39l-1.34,1a1.48,1.48,0,0,0-.35,2L266,45.89a1.51,1.51,0,0,1-.05,1.67l-7.2,9.9a1.51,1.51,0,0,0,0,1.71l5.57,8.12a1.46,1.46,0,0,1,.22,1.18L261,83.07"/><line class="cls-4" x1="114.74" y1="8.5" x2="119.34" y2="16.13"/><path class="cls-4" d="M124.21,7.4l-6.57,11.83a1.48,1.48,0,0,0,.43,1.92l2.06,1.51a1.46,1.46,0,0,1,.61,1.19h0a1.48,1.48,0,0,0,.43,1l2.72,2.76a1.47,1.47,0,0,0,2.24-.15L140.72,7.89"/><path class="cls-4" d="M125.1,28.88l5,6.65a1.49,1.49,0,0,1,.06,1.71l-4.36,6.61a1.49,1.49,0,0,0,.2,1.88L133.38,53a1.48,1.48,0,0,1,.31,1.67l-.94,2.06a1.46,1.46,0,0,1-.55.63l-2.28,1.46a1.47,1.47,0,0,0-.55,1.86L131,64.15a1.5,1.5,0,0,1-.15,1.49l-5.09,7a1.49,1.49,0,0,0,0,1.71l1.71,2.49a1.48,1.48,0,0,1,.09,1.52l-2.39,4.6"/><path class="cls-5" d="M171.13,22.54,98,65.27c-4.75-6.35-7.35-14.35-8.52-22.72-.72-5.1-1.29-9.6.68-14.46,2.42-6,7.54-10,12.94-12.48,9.34-4.37,20-5.24,30.05-5.3C133.18,10.31,159.1,11.42,171.13,22.54Z"/><path class="cls-6" d="M178,40.72c-7.46,29.94-21.8,39.05-43.3,40.35-10.17.62-20.94-.74-29.82-6.55-10.67-7-15.71-19.13-17.51-32.1-.75-5.37-1.34-10.1.71-15.21,2.53-6.28,7.86-10.48,13.49-13.13,9.75-4.59,20.85-5.51,31.34-5.58C132.88,8.5,185.44,10.78,178,40.72Z"/><path class="cls-7" d="M292.2,16a31.68,31.68,0,0,1,3.23,1.65L227,61.37c-3.61-5.26-6.55-12.06-8.83-20.77C211,13,261.85,10.89,261.85,10.89,272,10.94,282.76,11.79,292.2,16Z"/><path class="cls-6" d="M215.67,41C223.13,70.92,237.47,80,259,81.33c10.17.62,20.94-.74,29.83-6.55,10.66-7,15.7-19.13,17.5-32.11.75-5.36,1.34-10.1-.71-15.2-2.53-6.28-7.86-10.48-13.49-13.14-9.75-4.58-20.85-5.51-31.34-5.57C260.76,8.76,208.2,11,215.67,41Z"/><path class="cls-8" d="M301.14,191.76H92.46a3.66,3.66,0,0,1-3.52-2.66L56.06,72.25a6.56,6.56,0,0,1,6.31-8.33H336.15a3.66,3.66,0,0,1,3.51,4.68l-35,120.52A3.66,3.66,0,0,1,301.14,191.76Z"/><path class="cls-9" d="M299.51,188.15h-205a2.13,2.13,0,0,1-2-1.55L59.36,70.69a2.58,2.58,0,0,1,2.48-3.29H334.25a2.14,2.14,0,0,1,2.05,2.75L301.55,186.63A2.13,2.13,0,0,1,299.51,188.15Z"/><line class="cls-10" x1="177.74" y1="166.27" x2="217.36" y2="85.44"/><path class="cls-11" d="M87.69,70.79H63.07s-1.55,0-.64,1.31l10,34.11,9,30.89,12.93,44.29.44,1.5.55,2.07,22.31,0,40.92,0c6.7,0,13.44-.15,20.14,0-11.53-.3-23.12-.94-34.58-2.29s-23.78-1.15-34-6.82c-8.8-4.9-13.39-14.93-17-23.69q-.89-2.16-1.75-4.33a205.47,205.47,0,0,1-10.68-35.28,178.56,178.56,0,0,1-3.22-22.79C77,83.33,77.33,72.72,85.54,71A10.38,10.38,0,0,1,87.69,70.79Z"/><path class="cls-11" d="M99.2,64.91s22-3.23,29.57-3.43C133,61.37,61,61.37,61,61.37s-9.37.24-8.43,10.07l7.65,27.64,4,14.33,3.13,11.23,3.69,13.18,1.79,6.45,2.24,8,3,10.69,3.06,10.91,4.4,15.7c0,.15,1,6.14,6.81,5.52l14.64,0,73.63,0H229l30.91,0,15.82,0s-16.91.75-45.48-3.68l-11.12,0H93.56s-3.58.59-4.4-4.1L82.7,164.65l-16.22-57.2L56.2,71.25s-1.86-6.72,5.91-6.39H81.42Z"/><g class="cls-12"><g class="cls-13"><line class="cls-2" x1="352.03" y1="260.39" x2="390.9" y2="236.74"/><line class="cls-2" x1="351.46" y1="212.77" x2="390.9" y2="236.74"/><line class="cls-3" x1="352.03" y1="260.39" x2="390.9" y2="236.74"/><line class="cls-3" x1="351.46" y1="212.77" x2="390.9" y2="236.74"/><line class="cls-2" x1="47.45" y1="261.51" x2="8.59" y2="237.86"/><line class="cls-2" x1="48.03" y1="213.89" x2="8.59" y2="237.86"/><line class="cls-3" x1="47.45" y1="261.51" x2="8.59" y2="237.86"/><line class="cls-3" x1="48.03" y1="213.89" x2="8.59" y2="237.86"/><path class="cls-4" d="M327.78,307.2a1.17,1.17,0,0,1-.93.72c-8.13,1.91-76.55,17.13-113.39-2.94-1.19-.65-3.71-.5-5-.32a63.43,63.43,0,0,1-8.41.91,53.26,53.26,0,0,1-8.49-.91,11.44,11.44,0,0,0-4.6.25,1.79,1.79,0,0,0-.37.15C149.68,325,81.43,309.83,73.31,307.92a1.17,1.17,0,0,1-.93-.72,20,20,0,0,1-.14-8.45,1.06,1.06,0,0,1,.73-.66L78.89,296c.38-.13.77-1.58.93-1.89.31-.65.63-1.29,1-1.94,2.81-5.58,5.86-11.24,10.54-16.24,5.71-6.09,14.31-10.08,24.54-11.91a101.87,101.87,0,0,1,11.77-1.34c21-1.29,39.9,2.7,52.56,14.65,5.47,5.18,7.38,10.76,10.58,16.62a10.36,10.36,0,0,0,7.39,5,11.65,11.65,0,0,0,3.69,0l.31,0a10.07,10.07,0,0,0,7.23-5c3.2-5.86,5.11-11.44,10.58-16.62,12.65-11.95,31.6-15.94,52.56-14.65A101.87,101.87,0,0,1,284.3,264c10.23,1.83,18.83,5.82,24.54,11.91,4.68,5,7.73,10.66,10.54,16.24.33.65.65,1.29,1,1.94.16.31.55,1.76.93,1.89l5.92,2.11a1,1,0,0,1,.72.66A19.84,19.84,0,0,1,327.78,307.2ZM183.12,291.12c-7.78-19.46-22.71-25.39-45.11-26.23-10.6-.4-21.82.48-31.08,4.26C95.82,273.69,90.57,281.58,88.7,290c-.78,3.48-1.4,6.56.74,9.88,2.63,4.08,8.19,6.81,14,8.54,10.15,3,21.71,3.58,32.63,3.62h0C137.37,312,190.81,310.36,183.12,291.12ZM311.46,290c-1.87-8.44-7.12-16.33-18.24-20.87-9.25-3.78-20.47-4.66-31.07-4.26-22.4.84-37.33,6.77-45.11,26.23-7.69,19.24,45.75,20.91,47,20.94h0c10.92,0,22.48-.64,32.63-3.62,5.86-1.73,11.42-4.46,14.05-8.54C312.86,296.58,312.24,293.5,311.46,290Z"/><path class="cls-14" d="M264.17,312.17l-10.61-9c-.49-.41-.34-1,.34-1.29L265,297c.83-.36.85-1.11.05-1.49l-1.34-.63c-.62-.29-.77-.82-.36-1.23l5.88-5.73a.65.65,0,0,0-.05-1L262,280.75a.65.65,0,0,1,0-1.06l5.56-5.05a.65.65,0,0,0,.22-.74l-3.52-9.07"/><line class="cls-14" x1="118" y1="311.2" x2="122.61" y2="306.46"/><path class="cls-14" d="M127.48,311.88l-6.57-7.36c-.36-.4-.18-.91.42-1.19l2.07-.93a.9.9,0,0,0,.61-.75h0a.81.81,0,0,1,.42-.65l2.72-1.71a2.1,2.1,0,0,1,2.24.1L144,311.58"/><path class="cls-14" d="M128.36,298.52l5-4.13a.66.66,0,0,0,0-1.06L129,289.21c-.39-.36-.3-.85.2-1.16l7.41-4.52c.45-.27.57-.69.31-1l-.94-1.28a1.22,1.22,0,0,0-.55-.39l-2.28-.91c-.62-.24-.85-.74-.55-1.16l1.59-2.16a.64.64,0,0,0-.15-.93L129,271.34a.66.66,0,0,1,0-1.07l1.7-1.54a.64.64,0,0,0,.09-1l-2.39-2.86"/><path class="cls-15" d="M174.39,302.47l-73.1-26.58A25.11,25.11,0,0,0,92.77,290c-.72,3.17-1.28,6,.69,9,2.42,3.72,7.53,6.2,12.93,7.77,9.35,2.71,20,3.26,30.06,3.3C136.45,310.08,162.37,309.38,174.39,302.47Z"/><path class="cls-6" d="M181.24,291.16c-7.47-18.62-21.8-24.28-43.31-25.09-10.17-.39-20.94.46-29.82,4.07-10.66,4.34-15.71,11.9-17.51,20-.74,3.33-1.34,6.28.72,9.45,2.52,3.91,7.85,6.52,13.49,8.17,9.74,2.85,20.85,3.43,31.33,3.47C136.14,311.2,188.7,309.78,181.24,291.16Z"/><path class="cls-16" d="M295.47,306.52c1.09-.31,2.17-.65,3.22-1l-68.41-27.17a35.57,35.57,0,0,0-8.84,12.92c-7.23,17.17,43.68,18.48,43.68,18.48C275.28,309.68,286,309.15,295.47,306.52Z"/><path class="cls-6" d="M218.93,291c7.47-18.62,21.8-24.28,43.31-25.09,10.17-.39,20.94.46,29.82,4.07,10.66,4.34,15.71,11.9,17.51,20,.74,3.33,1.34,6.28-.72,9.45-2.52,3.91-7.85,6.52-13.49,8.17C285.62,310.43,274.51,311,264,311,264,311,211.47,309.62,218.93,291Z"/><path class="cls-17" d="M303.4,196.83H94.72c-1.64,0-3.08.68-3.52,1.66L58.32,271.15c-1.18,2.6,2,5.18,6.3,5.18H338.4c2.44,0,4.2-1.46,3.52-2.91l-35-75C306.46,197.5,305,196.83,303.4,196.83Z"/><path class="cls-9" d="M301.76,199.07h-205a2.22,2.22,0,0,0-2,1L61.62,272.12c-.47,1,.76,2.05,2.48,2.05H336.51c1.43,0,2.45-.86,2-1.71L303.81,200A2.27,2.27,0,0,0,301.76,199.07Z"/><line class="cls-10" x1="180" y1="212.68" x2="219.62" y2="262.95"/><path class="cls-11" d="M89.7,270.86H65.26s-1.54,0-.64-.8l9.89-20.7,8.95-18.76L96.3,203.71l.44-.91.54-1.26h22.15l40.62,0c6.66,0,13.34.09,20,0-11.44.18-22.95.57-34.32,1.39s-23.61.7-33.74,4.14c-8.73,3-13.29,9.07-16.89,14.38-.59.88-1.16,1.75-1.74,2.63a93.44,93.44,0,0,0-10.61,21.42,70,70,0,0,0-3.19,13.84c-.47,3.95-.14,10.39,8,11.43A16.58,16.58,0,0,0,89.7,270.86Z"/><path class="cls-11" d="M100.26,276.12s22.33,2,30,2.13c4.3.07-68.65.07-68.65.07s-9.49-.15-8.54-6.26l7.75-17.19L64.83,246,68,239l3.73-8.2,1.82-4,2.26-5,3-6.65,3.09-6.78,4.46-9.76c0-.09,1-3.82,6.9-3.43l14.84,0h171S262,194.71,233,197.46H94.54s-3.63-.37-4.46,2.55l-6.55,14.1L67.1,249.67,56.68,272.18s-1.87,4.17,6,4H82.23Z"/></g></g></g></g></svg>