<svg width="173" height="170" viewBox="0 0 173 170" fill="none" xmlns="http://www.w3.org/2000/svg">
<path d="M142.24 55.1004C140.399 54.4028 138.543 53.7564 136.672 53.1621C136.986 51.744 137.276 50.343 137.532 48.9667C141.748 26.3657 138.992 8.15777 129.579 2.16287C120.554 -3.58423 105.794 2.40843 90.8878 16.7366C89.4188 18.1513 87.9823 19.6067 86.5797 21.1015C85.6408 20.1075 84.6853 19.1328 83.7138 18.1779C68.091 2.85775 52.4318 -3.59916 43.029 2.41291C34.0121 8.17793 31.3421 25.2946 35.1372 46.7141C35.5148 48.8355 35.9412 50.946 36.4158 53.0434C34.1993 53.739 32.0604 54.4794 30.0135 55.2676C11.6971 62.3209 0 73.374 0 84.8391C0 96.6804 12.5574 108.557 31.6347 115.759C33.1813 116.341 34.7408 116.88 36.3118 117.375C35.8016 119.634 35.3486 121.909 34.9534 124.196C31.3353 145.243 34.1607 161.956 43.1534 167.684C52.4413 173.6 68.0302 167.52 83.2089 152.865C84.4398 151.673 85.6435 150.448 86.819 149.19C88.3378 150.809 89.8972 152.38 91.4954 153.903C106.199 167.877 120.72 173.519 129.704 167.775C138.983 161.842 141.999 143.889 138.084 122.046C137.775 120.335 137.429 118.632 137.046 116.939C138.141 116.581 139.216 116.212 140.263 115.829C160.096 108.572 173 96.8386 173 84.8391C173 73.3322 160.925 62.2044 142.24 55.1004V55.1004ZM137.939 108.081C136.993 108.427 136.023 108.76 135.033 109.085C132.844 101.43 129.889 93.2896 126.273 84.8786C129.724 76.6685 132.565 68.6323 134.693 61.0267C136.463 61.5924 138.18 62.1888 139.835 62.818C155.845 68.9054 165.61 77.9045 165.61 84.8391C165.61 92.2252 155.063 101.814 137.939 108.081V108.081ZM130.834 123.631C132.565 133.289 132.812 142.022 131.665 148.849C130.635 154.984 128.563 159.073 126.001 160.711C120.549 164.197 108.89 159.666 96.3157 147.715C94.8292 146.3 93.3787 144.839 91.9657 143.334C96.8408 137.446 101.713 130.601 106.467 122.998C114.831 122.179 122.732 120.838 129.897 119.009C130.25 120.582 130.564 122.124 130.834 123.631V123.631ZM58.9795 160.109C53.653 162.186 49.4104 162.246 46.8458 160.613C41.3889 157.137 39.1203 143.718 42.2147 125.718C42.5825 123.591 43.0037 121.476 43.4777 119.375C50.564 121.106 58.4078 122.351 66.7908 123.102C71.5781 130.541 76.5903 137.379 81.6418 143.366C80.5683 144.514 79.4694 145.631 78.346 146.719C71.6335 153.199 64.9074 157.797 58.9795 160.109V160.109ZM34.0256 108.036C25.5898 104.851 18.6232 100.712 13.8481 96.196C9.5569 92.1379 7.39102 88.1082 7.39102 84.8391C7.39102 77.8814 16.7824 69.0069 32.4463 62.9755C34.3473 62.244 36.3368 61.5536 38.4013 60.9058C40.5665 68.683 43.4061 76.8148 46.833 85.0376C43.3615 93.3821 40.4813 101.644 38.2952 109.513C36.8612 109.059 35.4376 108.567 34.0256 108.036V108.036ZM42.3904 45.146C39.1392 26.7948 41.2983 12.9518 46.7323 9.47737C52.5197 5.77683 65.3176 11.053 78.8069 24.2818C79.6865 25.1464 80.5519 26.0285 81.4026 26.9277C76.3761 32.889 71.4098 39.6758 66.6651 47.0709C58.5287 47.9039 50.7404 49.2414 43.5798 51.0334C43.1386 49.0825 42.742 47.1197 42.3904 45.1467V45.146ZM117.015 65.4982C115.324 62.2716 113.57 59.0855 111.754 55.9423C117.274 56.7134 122.562 57.7366 127.529 58.9876C126.038 64.2659 124.18 69.7839 121.992 75.4415C120.393 72.0908 118.734 68.7757 117.015 65.4982V65.4982ZM86.5831 32.7614C89.9918 36.8403 93.4058 41.394 96.7638 46.335C89.9519 45.9797 83.1287 45.9782 76.3167 46.3305C79.678 41.435 83.1211 36.8873 86.5831 32.7614ZM55.956 65.5542C54.2587 68.8053 52.6303 72.0997 51.0722 75.4347C48.9205 69.7973 47.079 64.254 45.5754 58.901C50.5113 57.6814 55.7749 56.6842 61.2596 55.9274C59.4238 59.0898 57.6554 62.2994 55.956 65.5534V65.5542ZM61.417 114.331C55.7506 113.633 50.4079 112.687 45.4733 111.5C47.0006 106.052 48.8826 100.391 51.081 94.6323C52.6453 97.9698 54.2804 101.266 55.9851 104.519C57.7381 107.863 59.5532 111.138 61.417 114.331ZM86.7872 137.492C83.284 133.318 79.7902 128.7 76.3782 123.734C79.6908 123.877 83.0677 123.95 86.5 123.95C90.0262 123.95 93.5119 123.863 96.9428 123.694C93.5741 128.75 90.1729 133.375 86.7872 137.492ZM122.062 94.3382C124.374 100.16 126.323 105.791 127.871 111.147C122.855 112.411 117.439 113.429 111.733 114.185C113.562 110.984 115.332 107.742 117.044 104.463C118.784 101.13 120.457 97.7538 122.062 94.3382V94.3382ZM110.642 100.385C108.022 105.413 105.254 110.345 102.343 115.174C97.0703 115.587 91.7859 115.791 86.5 115.788C81.1161 115.788 75.8794 115.603 70.8367 115.242C67.8499 110.424 65.0292 105.483 62.3807 100.429H62.3814C59.7453 95.4026 57.283 90.2671 54.9998 85.0339C57.2772 79.7995 59.732 74.6615 62.3591 69.6309L62.3584 69.6317C64.9845 64.5997 67.7826 59.6798 70.7469 54.8825C75.8916 54.4526 81.1674 54.2287 86.4993 54.2287H86.5C91.8562 54.2287 97.1388 54.4548 102.282 54.8877C105.216 59.6779 107.997 64.5809 110.618 69.5876C113.254 74.6071 115.741 79.72 118.076 84.9182C115.765 90.1695 113.286 95.3283 110.642 100.385V100.385ZM125.888 9.23405C131.681 12.9241 133.934 27.8047 130.294 47.3187C130.062 48.5637 129.801 49.8318 129.517 51.1178C122.339 49.2876 114.545 47.927 106.385 47.0814C101.631 39.6049 96.7057 32.8076 91.761 26.9232C93.0569 25.5435 94.3836 24.1996 95.74 22.8928C108.512 10.6171 120.449 5.77011 125.888 9.23405V9.23405ZM86.5 67.7769C95.0317 67.7769 101.948 75.4161 101.948 84.8391C101.948 94.2621 95.0317 101.901 86.5 101.901C77.9683 101.901 71.0516 94.2621 71.0516 84.8391C71.0516 75.4161 77.9683 67.7769 86.5 67.7769V67.7769Z" fill="#00D8FF"/>
</svg>
