<svg width="69" height="62" viewBox="0 0 69 62" fill="none" xmlns="http://www.w3.org/2000/svg">
<path d="M47.7471 38.3022V41.3317C47.7471 42.0727 47.1389 42.683 46.3759 42.683H31.1716C30.4197 42.683 29.8005 42.0836 29.8005 41.3317V38.3022C29.8005 37.5612 30.4087 36.9509 31.1716 36.9509H46.3759C47.1279 36.9509 47.7471 37.5612 47.7471 38.3022Z" fill="#F13700"/>
<path d="M0 21.8253C0 20.5721 0.243269 19.4061 0.729807 18.3054C1.21635 17.2048 1.86875 16.2567 2.69808 15.4394C3.53846 14.6112 4.51154 13.9573 5.62836 13.4779C6.74519 12.9984 7.92836 12.7586 9.2 12.7586H21.9053C22.6572 12.7586 23.2764 13.358 23.2764 14.1099V17.4554C23.2764 18.1964 22.6683 18.8067 21.9053 18.8067H9.18894C8.75769 18.8067 8.35961 18.883 7.99471 19.0355C7.61875 19.1881 7.29807 19.4061 7.01057 19.6894C6.73413 19.9509 6.52404 20.2779 6.36923 20.6375C6.21442 21.008 6.13702 21.4003 6.13702 21.8144C6.13702 22.2285 6.21442 22.6317 6.36923 23.0131C6.52404 23.3836 6.74519 23.6996 7.01057 23.983C7.29807 24.2554 7.61875 24.4625 7.99471 24.615C8.37067 24.7676 8.76875 24.8439 9.18894 24.8439H15.326C16.5976 24.8439 17.7808 25.0836 18.8976 25.5631C20.0255 26.0317 20.9986 26.6746 21.8279 27.5028C22.6683 28.3202 23.3207 29.2791 23.7961 30.3907C24.2827 31.4913 24.526 32.6573 24.526 33.9105C24.526 35.1637 24.2827 36.3298 23.7961 37.4304C23.3207 38.5311 22.6683 39.49 21.8279 40.3182C20.9986 41.1355 20.0255 41.7785 18.8976 42.258C17.7808 42.7375 16.5976 42.9772 15.326 42.9772H3.07404C2.32211 42.9772 1.70288 42.3778 1.70288 41.6259V38.2804C1.70288 37.5394 2.31106 36.9291 3.07404 36.9291H15.326C15.7572 36.9291 16.1553 36.8528 16.5202 36.7003C16.8961 36.5477 17.2168 36.3298 17.4822 36.0682C17.7697 35.7849 17.9909 35.4689 18.1457 35.0984C18.3005 34.7278 18.3779 34.3355 18.3779 33.9214C18.3779 33.4964 18.3005 33.1041 18.1457 32.7445C17.9909 32.374 17.7697 32.058 17.4822 31.7964C17.2168 31.5131 16.8851 31.2952 16.5202 31.1426C16.1442 30.99 15.7461 30.9137 15.326 30.9137H9.18894C7.9173 30.9137 6.73413 30.674 5.61731 30.1945C4.50048 29.715 3.5274 29.0721 2.68702 28.2548C1.85769 27.4266 1.20529 26.4676 0.71875 25.367C0.232211 24.2554 0 23.0785 0 21.8253Z" fill="#F13700"/>
</svg>
