<svg width="422" height="426" viewBox="0 0 422 426" fill="none" xmlns="http://www.w3.org/2000/svg">
<path fill-rule="evenodd" clip-rule="evenodd" d="M211 26.625C247.515 26.625 283.211 37.5557 313.572 58.0349C343.934 78.514 367.597 107.622 381.571 141.677C395.545 175.733 399.201 213.207 392.077 249.36C384.954 285.513 367.37 318.722 341.55 344.787C315.729 370.852 282.832 388.603 247.019 395.794C211.205 402.985 174.083 399.294 140.347 385.188C106.611 371.082 77.7768 347.194 57.4899 316.544C37.2031 285.895 26.375 249.861 26.375 213C26.375 163.57 45.8265 116.165 80.4504 81.213C115.074 46.2609 162.034 26.625 211 26.625V26.625Z" fill="#CC6699"/>
<path d="M326.812 106.392C318.451 73.2976 264.079 62.4612 212.622 80.8591C180.396 91.7907 150.622 109.031 125.004 131.593C96.664 158.351 92.1407 181.648 94.0002 191.379C100.594 225.726 147.185 248.171 166.347 264.825V264.918C160.703 267.727 119.347 288.88 109.641 310.446C99.4334 333.237 111.263 349.585 119.109 351.782C130.89 354.645 143.263 353.713 154.492 349.117C165.722 344.521 175.244 336.492 181.723 326.155C187.078 317.781 190.428 308.263 191.509 298.355C192.589 288.447 191.37 278.421 187.948 269.071C197.177 266.704 206.771 266.148 216.209 267.434C248.597 271.255 254.954 291.663 253.74 300.209C253.17 303.251 251.957 306.134 250.184 308.661C248.411 311.188 246.121 313.3 243.467 314.853C241.199 316.277 240.5 316.757 240.698 317.822C240.975 319.353 242.017 319.299 243.955 318.966C248.822 317.419 253.111 314.419 256.256 310.363C259.401 306.306 261.255 301.383 261.574 296.242C262.352 276.273 243.349 253.828 209.694 254.401C199.919 254.119 190.166 255.468 180.827 258.395C180.359 257.856 179.884 257.323 179.402 256.797C158.593 234.392 120.138 218.537 121.76 188.411C122.353 177.455 126.125 148.62 195.61 113.634C252.58 84.9727 298.182 92.867 306.068 110.346C317.33 135.321 281.698 181.715 222.539 188.411C216 189.751 209.246 189.587 202.779 187.933C196.311 186.278 190.296 183.174 185.179 178.852C182.066 175.391 181.605 175.245 180.444 175.884C178.558 176.935 179.758 179.997 180.444 181.808C182.709 185.929 185.767 189.552 189.438 192.465C193.109 195.377 197.319 197.52 201.821 198.768C225.081 203.87 249.342 201.448 271.161 191.845C307.044 177.881 335.028 138.942 326.812 106.392V106.392ZM174.312 275.075C176.931 284.19 176.798 293.887 173.93 302.925C173.622 303.866 173.283 304.798 172.914 305.721C172.545 306.644 172.145 307.531 171.714 308.383C169.495 312.967 166.62 317.197 163.182 320.937C152.46 332.745 137.466 337.218 131.044 333.451C124.107 329.39 127.576 312.736 140.011 299.464C149.567 289.925 160.584 282.005 172.637 276.007L174.312 275.075Z" fill="white"/>
</svg>
