<svg width="475" height="475" viewBox="0 0 475 475" fill="none" xmlns="http://www.w3.org/2000/svg">
<path d="M338.363 14.8438C286.366 14.8438 131.568 65.7133 94.2133 78.1598C44.6352 93.3227 14.8438 140.489 14.8438 201.036V313.663L214.002 352.799V451.688L276.272 460.156L321.137 417.837V325.702L460.156 243.356V133.349C460.156 58.566 414.853 14.8438 338.363 14.8438ZM259.595 206.135L245.145 195.589L254.414 176.232C257.079 185.918 258.823 195.938 259.595 206.135ZM75.718 135.197L226.56 121.607C236.298 133.696 244.08 147.237 249.62 161.738L233.693 195.01L233.685 195.032L233.648 195.121L218.032 229.759L180.285 206.603L71.7547 136.429C72.8383 135.813 74.1445 135.353 75.718 135.197ZM61.1043 308.557L95.8387 293.283L101.798 314.146C102.058 315.066 102.474 315.882 102.808 316.758L61.1043 308.557ZM112.004 311.318L66.8043 153.173C66.0479 150.623 65.8355 147.943 66.1809 145.305L170.51 212.763L152.816 247.119L115.907 318.784C114.102 316.594 112.772 314.051 112.004 311.318ZM125.014 324.202L159.006 258.192L179.491 218.426L217.609 241.79C218.182 242.129 218.815 242.355 219.472 242.458L219.984 242.532C220.133 242.539 220.266 242.584 220.415 242.584C221.434 242.584 222.431 242.292 223.289 241.742C224.147 241.192 224.829 240.408 225.254 239.482L240.654 205.311L251.067 212.911L260.07 219.487V276.383L130.098 323.668C128.473 324.261 126.727 324.444 125.014 324.202ZM152.698 326.562L245.939 292.645V344.88L152.698 326.562ZM262.126 444.192L228.141 439.568V355.567L260.07 361.846V361.861L262.126 360.644V444.192ZM369.869 93.5453L290.21 123.27L290.27 253.257L270.965 262.623V59.516L369.921 26.0434L369.869 93.5453Z" fill="#222629"/>
</svg>
