<svg width="51" height="43" viewBox="0 0 51 43" fill="none" xmlns="http://www.w3.org/2000/svg">
<path fill-rule="evenodd" clip-rule="evenodd" d="M0.567464 16.0198C0.746887 15.8399 0.960035 15.6972 1.1947 15.5998C1.42936 15.5025 1.68093 15.4523 1.935 15.4523C2.18906 15.4523 2.44063 15.5025 2.67529 15.5998C2.90996 15.6972 3.12311 15.8399 3.30253 16.0198L25.1135 37.8347L46.9245 16.0198C47.2872 15.6571 47.7791 15.4534 48.292 15.4534C48.805 15.4534 49.2969 15.6571 49.6596 16.0198C50.0223 16.3825 50.226 16.8744 50.226 17.3873C50.226 17.9003 50.0223 18.3922 49.6596 18.7549L26.481 41.9334C26.3016 42.1133 26.0885 42.256 25.8538 42.3534C25.6191 42.4507 25.3676 42.5009 25.1135 42.5009C24.8594 42.5009 24.6079 42.4507 24.3732 42.3534C24.1386 42.256 23.9254 42.1133 23.746 41.9334L0.567464 18.7549C0.387586 18.5755 0.244872 18.3623 0.147498 18.1276C0.050123 17.893 0 17.6414 0 17.3873C0 17.1333 0.050123 16.8817 0.147498 16.647C0.244872 16.4124 0.387586 16.1992 0.567464 16.0198Z" fill="#F13700"/>
<path fill-rule="evenodd" clip-rule="evenodd" d="M0.567464 0.567463C0.746887 0.387585 0.960035 0.244872 1.1947 0.147498C1.42936 0.050123 1.68093 0 1.935 0C2.18906 0 2.44063 0.050123 2.67529 0.147498C2.90996 0.244872 3.12311 0.387585 3.30253 0.567463L25.1135 22.3823L46.9245 0.567463C47.1041 0.387876 47.3173 0.245421 47.5519 0.148229C47.7866 0.0510372 48.0381 0.00101313 48.292 0.00101313C48.546 0.00101313 48.7975 0.0510372 49.0321 0.148229C49.2668 0.245421 49.48 0.387876 49.6596 0.567463C49.8391 0.74705 49.9816 0.960251 50.0788 1.19489C50.176 1.42953 50.226 1.68102 50.226 1.935C50.226 2.18897 50.176 2.44046 50.0788 2.6751C49.9816 2.90974 49.8391 3.12294 49.6596 3.30253L26.481 26.481C26.3016 26.6609 26.0885 26.8036 25.8538 26.901C25.6191 26.9984 25.3676 27.0485 25.1135 27.0485C24.8594 27.0485 24.6079 26.9984 24.3732 26.901C24.1386 26.8036 23.9254 26.6609 23.746 26.481L0.567464 3.30253C0.387586 3.12311 0.244872 2.90996 0.147498 2.67529C0.050123 2.44063 0 2.18906 0 1.935C0 1.68093 0.050123 1.42936 0.147498 1.1947C0.244872 0.960035 0.387586 0.746887 0.567464 0.567463Z" fill="#F13700"/>
</svg>
