<svg width="761" height="457" viewBox="0 0 761 457" fill="none" xmlns="http://www.w3.org/2000/svg">
<path d="M380.5 0C279.034 0 215.616 50.7577 190.25 152.27C228.3 101.512 272.691 82.4787 323.425 95.1688C352.37 102.408 373.059 123.419 395.961 146.673C433.268 184.559 476.442 228.405 570.75 228.405C672.216 228.405 735.634 177.647 761 76.1351C722.95 126.893 678.559 145.927 627.825 133.236C598.88 125.998 578.191 104.986 555.289 81.7322C517.982 43.8461 474.808 0 380.5 0ZM190.25 228.405C88.7843 228.405 25.3657 279.163 0 380.675C38.05 329.918 82.4407 310.884 133.175 323.574C162.12 330.813 182.809 351.824 205.711 375.078C243.018 412.964 286.192 456.81 380.5 456.81C481.966 456.81 545.384 406.053 570.75 304.54C532.7 355.298 488.309 374.332 437.575 361.642C408.63 354.403 387.941 333.391 365.039 310.137C327.732 272.251 284.558 228.405 190.25 228.405Z" fill="url(#paint0_linear)"/>
<defs>
<linearGradient id="paint0_linear" x1="-21.1406" y1="146.179" x2="636.258" y2="525.049" gradientUnits="userSpaceOnUse">
<stop stop-color="#2298BD"/>
<stop offset="1" stop-color="#0ED7B5"/>
</linearGradient>
</defs>
</svg>
