<svg width="88" height="88" viewBox="0 0 88 88" fill="none" xmlns="http://www.w3.org/2000/svg">
<circle cx="43.75" cy="43.75" r="43.75" fill="none"/>
<path d="M43.75 0C19.5898 0 0 19.5898 0 43.75C0 67.9102 19.5898 87.5 43.75 87.5C67.9102 87.5 87.5 67.9102 87.5 43.75C87.5 19.5898 67.9102 0 43.75 0ZM43.75 80.0781C23.6914 80.0781 7.42188 63.8086 7.42188 43.75C7.42188 23.6914 23.6914 7.42188 43.75 7.42188C63.8086 7.42188 80.0781 23.6914 80.0781 43.75C80.0781 63.8086 63.8086 80.0781 43.75 80.0781Z" fill="#50595e"/>
<path d="M32.0884 24.3186C31.9839 24.2176 31.8597 24.1375 31.7229 24.0828C31.5862 24.0281 31.4396 24 31.2915 24C31.1435 24 30.9969 24.0281 30.8601 24.0828C30.7234 24.1375 30.5992 24.2176 30.4946 24.3186L24.5246 30.0337L22.3965 28.0369C22.292 27.9359 22.1678 27.8558 22.0311 27.8011C21.8943 27.7464 21.7477 27.7183 21.5996 27.7183C21.4516 27.7183 21.305 27.7464 21.1682 27.8011C21.0315 27.8558 20.9073 27.9359 20.8028 28.0369L19.3309 29.456C19.226 29.5566 19.1428 29.6762 19.086 29.8079C19.0292 29.9395 19 30.0807 19 30.2233C19 30.3658 19.0292 30.507 19.086 30.6387C19.1428 30.7704 19.226 30.8899 19.3309 30.9906L23.7925 35.2695C24.0152 35.4733 24.3107 35.587 24.6179 35.587C24.9252 35.587 25.2207 35.4733 25.4434 35.2695L26.905 33.8594L33.6737 27.3427C33.8846 27.1395 34.0038 26.8644 34.0054 26.5771C34.0069 26.2898 33.8908 26.0135 33.6822 25.8081L32.0884 24.3186ZM32.0884 38.689C31.9839 38.588 31.8597 38.5078 31.7229 38.4532C31.5862 38.3985 31.4396 38.3703 31.2915 38.3703C31.1435 38.3703 30.9969 38.3985 30.8601 38.4532C30.7234 38.5078 30.5992 38.588 30.4946 38.689L24.5246 44.4411L22.3965 42.4461C22.292 42.3451 22.1678 42.2649 22.0311 42.2103C21.8943 42.1556 21.7477 42.1274 21.5996 42.1274C21.4516 42.1274 21.305 42.1556 21.1682 42.2103C21.0315 42.2649 20.9073 42.3451 20.8028 42.4461L19.3309 43.8624C19.226 43.9631 19.1428 44.0826 19.086 44.2143C19.0292 44.346 19 44.4872 19 44.6297C19 44.7723 19.0292 44.9135 19.086 45.0451C19.1428 45.1768 19.226 45.2964 19.3309 45.397L23.7812 49.6849C24.0037 49.8887 24.2991 50.0023 24.6062 50.0023C24.9133 50.0023 25.2087 49.8887 25.4312 49.6849L26.9031 48.2686L33.6718 41.7492C33.8819 41.5473 34.0007 41.2738 34.0023 40.988C34.0039 40.7023 33.8881 40.4275 33.6803 40.2236L32.0884 38.689ZM25 54.3339C22.5165 54.3339 20.4446 56.2748 20.4446 58.667C20.4446 61.0592 22.5184 63 25 63C26.1934 63 27.338 62.5435 28.1819 61.7309C29.0259 60.9183 29.5 59.8162 29.5 58.667C29.5 57.5178 29.0259 56.4156 28.1819 55.603C27.338 54.7904 26.1934 54.3339 25 54.3339ZM65.5 55.7783H38.5C38.1021 55.7783 37.7206 55.9304 37.4393 56.2013C37.158 56.4722 37 56.8396 37 57.2226V60.1113C37 60.4944 37.158 60.8617 37.4393 61.1326C37.7206 61.4035 38.1021 61.5557 38.5 61.5557H65.5C65.8978 61.5557 66.2794 61.4035 66.5607 61.1326C66.842 60.8617 67 60.4944 67 60.1113V57.2226C67 56.8396 66.842 56.4722 66.5607 56.2013C66.2794 55.9304 65.8978 55.7783 65.5 55.7783ZM65.5 26.8914H38.5C38.1021 26.8914 37.7206 27.0435 37.4393 27.3144C37.158 27.5853 37 27.9526 37 28.3357V31.2244C37 31.6075 37.158 31.9748 37.4393 32.2457C37.7206 32.5166 38.1021 32.6687 38.5 32.6687H65.5C65.8978 32.6687 66.2794 32.5166 66.5607 32.2457C66.842 31.9748 67 31.6075 67 31.2244V28.3357C67 27.9526 66.842 27.5853 66.5607 27.3144C66.2794 27.0435 65.8978 26.8914 65.5 26.8914ZM65.5 41.3348H38.5C38.1021 41.3348 37.7206 41.487 37.4393 41.7579C37.158 42.0287 37 42.3961 37 42.7792V45.6678C37 46.0509 37.158 46.4183 37.4393 46.6892C37.7206 46.96 38.1021 47.1122 38.5 47.1122H65.5C65.8978 47.1122 66.2794 46.96 66.5607 46.6892C66.842 46.4183 67 46.0509 67 45.6678V42.7792C67 42.3961 66.842 42.0287 66.5607 41.7579C66.2794 41.487 65.8978 41.3348 65.5 41.3348Z" fill="#50595e"/>
</svg>
