<svg width="88" height="88" viewBox="0 0 88 88" fill="none" xmlns="http://www.w3.org/2000/svg">
<circle cx="43.75" cy="43.75" r="43.75" fill="white"/>
<path d="M44.6348 29.1855C44.5629 29.0857 44.4682 29.0044 44.3587 28.9483C44.2492 28.8923 44.1279 28.863 44.0049 28.863C43.8819 28.863 43.7606 28.8923 43.6511 28.9483C43.5416 29.0044 43.4469 29.0857 43.375 29.1855L25.9922 53.209C25.6211 53.7266 25.9922 54.4492 26.627 54.4492H31.207C32.2031 54.4492 33.1504 53.9707 33.7363 53.1601L44 38.9609L54.2735 53.1601C54.8594 53.9707 55.7969 54.4492 56.8027 54.4492H61.3828C62.0176 54.4492 62.3887 53.7266 62.0176 53.209L44.6348 29.1855V29.1855Z" fill="#F13700"/>
<path d="M44 0.25C19.8398 0.25 0.25 19.8398 0.25 44C0.25 68.1602 19.8398 87.75 44 87.75C68.1602 87.75 87.75 68.1602 87.75 44C87.75 19.8398 68.1602 0.25 44 0.25ZM44 80.3281C23.9414 80.3281 7.67188 64.0586 7.67188 44C7.67188 23.9414 23.9414 7.67188 44 7.67188C64.0586 7.67188 80.3281 23.9414 80.3281 44C80.3281 64.0586 64.0586 80.3281 44 80.3281Z" fill="#F13700"/>
</svg>
