<svg width="88" height="58" viewBox="0 0 88 58" fill="none" xmlns="http://www.w3.org/2000/svg">
<path d="M85.7365 9.1002C85.2407 7.34401 84.2749 5.75403 82.9419 4.49931C81.5712 3.206 79.8912 2.28087 78.0605 1.81123C71.2091 0.0179644 43.7595 0.0179648 43.7595 0.0179648C32.3161 -0.111322 20.8755 0.457312 9.50233 1.72066C7.6716 2.22499 5.99476 3.1708 4.62095 4.47395C3.2711 5.76365 2.29336 7.35404 1.7826 9.09658C0.555668 15.6601 -0.0404622 22.3245 0.00225165 29C-0.0415275 35.6695 0.553139 42.3317 1.7826 48.9034C2.28242 50.6387 3.2565 52.2218 4.61001 53.5007C5.96351 54.7795 7.64901 55.7033 9.50233 56.1924C16.445 57.982 43.7595 57.982 43.7595 57.982C55.2175 58.1115 66.6727 57.5428 78.0605 56.2793C79.8912 55.8097 81.5712 54.8845 82.9419 53.5912C84.2917 52.3124 85.2512 50.722 85.7328 48.9903C86.9918 42.4294 87.6039 35.7622 87.5606 29.0833C87.6553 22.3762 87.0439 15.6775 85.7365 9.09658V9.1002ZM35.0329 41.4043V16.5993L57.871 29.0036L35.0329 41.4043Z" fill="#F13700"/>
</svg>
